<svg xmlns="http://www.w3.org/2000/svg" viewBox="0 0 238.174 147.446"><defs><style>.cls-1{fill:#fff;}</style></defs><g id="Layer_2" data-name="Layer 2"><g id="Layer_1-2" data-name="Layer 1"><path class="cls-1" d="M84.145,40.639V39.2c3.5-.035,13.546-.525,17.851-.735a21.073,21.073,0,0,0,0,2.975C97.516,41.165,87.61,40.709,84.145,40.639Zm.875,7.771c-.1-.455-.21-1.085-.28-1.4,3.43-.735,13.2-3.151,17.362-4.2a22.425,22.425,0,0,0,.594,2.905C98.251,46.31,88.45,47.815,85.02,48.41Zm-.246-15.577c.071-.455.21-1.084.281-1.4,3.465.63,13.371,2.1,17.641,2.766a24.717,24.717,0,0,0-.594,2.87C97.8,35.949,88.17,33.568,84.774,32.833ZM87.47,55.9c-.21-.455-.42-1.015-.56-1.33,3.22-1.4,12.321-5.671,16.206-7.526a29.353,29.353,0,0,0,1.12,2.73C100,51.246,90.69,54.606,87.47,55.9Zm-.525-30.593a12.236,12.236,0,0,1,.525-1.295c3.29,1.259,12.706,4.655,16.766,6.125a21.694,21.694,0,0,0-1.12,2.731C99.091,30.908,90.13,26.708,86.945,25.308ZM91.25,62.691c-.28-.384-.63-.91-.805-1.19,2.906-1.995,10.956-7.945,14.422-10.5.455.771,1.19,1.855,1.645,2.451C102.662,55.726,94.19,60.836,91.25,62.691Zm-.77-44.349c.245-.42.595-.91.77-1.19,2.976,1.89,11.551,7.071,15.262,9.276a19.007,19.007,0,0,0-1.645,2.485C101.3,26.183,93.315,20.337,90.48,18.342Zm5.846,50.335c-.35-.315-.77-.77-1.015-1.015,2.45-2.52,9.206-9.941,12.076-13.126a29.675,29.675,0,0,0,2.1,2.1C106.127,59.611,98.846,66.262,96.326,68.677Zm-.98-56.461A13.8,13.8,0,0,1,96.361,11.2c2.52,2.45,9.941,9.171,13.126,12.076a23.9,23.9,0,0,0-2.1,2.1C104.412,22.018,97.761,14.7,95.346,12.216Zm7.1,61.327c-.385-.245-.909-.6-1.19-.805,1.89-2.941,7.071-11.551,9.276-15.227a23.384,23.384,0,0,0,2.485,1.645C110.292,62.727,104.447,70.672,102.451,73.543ZM101.3,7.106c.385-.245.945-.595,1.19-.77,2.031,2.87,7.981,10.956,10.536,14.421a18.663,18.663,0,0,0-2.45,1.645C108.3,18.517,103.187,10.046,101.3,7.106Zm8.156,70.007c-.455-.14-1.015-.42-1.33-.525,1.3-3.29,4.69-12.741,6.161-16.767a19.424,19.424,0,0,0,2.73,1.12C115.053,64.967,110.852,73.928,109.452,77.113Zm-1.3-73.788c.455-.21,1.015-.455,1.33-.56,1.4,3.221,5.706,12.321,7.526,16.207a29.353,29.353,0,0,0-2.73,1.12C112.812,15.856,109.452,6.546,108.157,3.325Zm9.136,25.938c2.485,0,4.865-.07,5.6-.07v.63a4.672,4.672,0,0,0-1.716.175,1.149,1.149,0,0,0-.77,1.05,2.051,2.051,0,0,0,.175.875,8.259,8.259,0,0,0,.63,1.3c.35.594,3.256,5.285,4.026,6.37.84-1.085,3.15-4.8,3.15-4.8l.77-1.33a4.2,4.2,0,0,0,.561-1.785,1.5,1.5,0,0,0-.6-1.505,3.865,3.865,0,0,0-1.96-.315v-.63c.665-.035,3.255.1,5.04.1,1.82,0,3.186-.1,4.166-.1v.665a3.61,3.61,0,0,0-1.61.315,5.05,5.05,0,0,0-1.295.665,10.4,10.4,0,0,0-2.171,2.695l-3.745,5.881a17.078,17.078,0,0,0-1.12,2,5.679,5.679,0,0,0-.175,1.611V46.17a12.131,12.131,0,0,0,.175,2.38,2.77,2.77,0,0,0,.7,1.3,4.11,4.11,0,0,0,2.8.946v.629c-.806,0-3.431-.069-5.812-.069s-5,.105-6.02.069a3.8,3.8,0,0,0,.035-.629,5.619,5.619,0,0,0,1.855-.281,2.911,2.911,0,0,0,1.05-.7,2.627,2.627,0,0,0,.63-1.33,12.439,12.439,0,0,0,.175-2.17s.035-2.766,0-3.185a6.6,6.6,0,0,0-.139-1.576,13.189,13.189,0,0,0-1.191-2.24c-2.2-3.43-4.935-7.6-4.935-7.6a4.262,4.262,0,0,0-1.4-1.365,4.05,4.05,0,0,0-2.276-.525v-.63c.806,0,2.415.035,4.691.07ZM115.578.91c.49-.1,1.085-.245,1.435-.28.735,3.431,3.15,13.162,4.2,17.362a21.411,21.411,0,0,0-2.9.56C117.713,14.106,116.208,4.34,115.578.91Zm1.4,78.339c-.455-.071-1.085-.211-1.4-.281.63-3.43,2.1-13.371,2.73-17.641a27.124,27.124,0,0,0,2.9.594C120.093,66.227,117.713,75.853,116.978,79.249ZM123.384,0h1.434c.071,3.5.561,13.546.736,17.852a20.594,20.594,0,0,0-2.941,0C122.894,13.372,123.313,3.5,123.384,0Zm1.4,79.914h-1.435c-.071-3.536-.525-13.547-.736-17.852a20.892,20.892,0,0,0,2.941,0C125.309,66.542,124.854,76.413,124.784,79.914ZM132.555,79c-.455.105-1.085.21-1.4.28-.769-3.43-3.185-13.2-4.235-17.362a21.242,21.242,0,0,0,2.905-.594C130.454,65.772,131.925,75.573,132.555,79ZM131.189.63c.456.07,1.085.21,1.4.28-.63,3.465-2.1,13.372-2.731,17.642a20.064,20.064,0,0,0-2.905-.56C128.074,13.651,130.454,4.025,131.189.63Zm7.561,2.135c.42.175,1.016.421,1.33.56-1.3,3.256-4.726,12.742-6.16,16.767-.806-.385-2.03-.875-2.731-1.12C133.149,14.947,137.35,5.951,138.75,2.765Zm1.295,73.823c-.455.21-1.015.455-1.33.56-1.4-3.22-5.705-12.321-7.526-16.207a29.377,29.377,0,0,0,2.731-1.12C135.39,64.057,138.75,73.368,140.045,76.588Zm5.636-70.252a9.9,9.9,0,0,1,1.19.8c-1.891,2.94-7.071,11.586-9.311,15.261a23.087,23.087,0,0,0-2.451-1.645C137.84,17.187,143.721,9.206,145.681,6.336Zm1.19,66.436c-.385.281-.91.631-1.19.806-2.031-2.87-8.016-10.992-10.572-14.457a16.957,16.957,0,0,0,2.486-1.645C139.835,61.361,144.98,69.867,146.871,72.772ZM151.842,11.2a13.968,13.968,0,0,1,1.014,1.015c-2.45,2.52-9.206,9.976-12.111,13.162a20,20,0,0,0-2.1-2.1C142.006,20.3,149.356,13.616,151.842,11.2Zm.979,56.531c-.314.35-.769.77-1.014,1.015-2.521-2.45-9.977-9.241-13.161-12.111a23.717,23.717,0,0,0,2.1-2.1C143.721,57.9,150.406,65.212,152.821,67.732Zm4.1-50.58c.28.385.63.91.805,1.19-2.87,2-10.991,7.981-14.456,10.536a18.667,18.667,0,0,0-1.646-2.45C145.506,24.152,153.977,19.042,156.917,17.152Zm.771,44.419c-.246.386-.631.91-.806,1.191-2.941-1.89-11.586-7.106-15.262-9.311A22.951,22.951,0,0,0,143.266,51C146.836,53.7,154.816,59.576,157.688,61.571Zm3.605-6.965c-.176.455-.421,1.015-.561,1.33-3.254-1.3-12.741-4.69-16.8-6.161a21.876,21.876,0,0,0,1.155-2.73C149.111,49.005,158.107,53.206,161.293,54.606Zm-.525-30.593c.174.42.42,1.015.525,1.33-3.221,1.4-12.321,5.7-16.207,7.526-.28-.841-.806-2.066-1.12-2.731C148.2,28.668,157.512,25.308,160.768,24.013Zm2.344,7.455c.106.455.245,1.085.281,1.4-3.431.735-13.2,3.185-17.362,4.2-.105-.875-.385-2.171-.56-2.905C149.882,33.568,159.718,32.063,163.112,31.468Zm.316,15.577c-.1.49-.21,1.085-.281,1.4-3.464-.595-13.406-2.1-17.676-2.73a26.9,26.9,0,0,0,.595-2.905C150.371,43.93,160,46.31,163.428,47.045Zm.63-7.771v1.435c-3.536.035-13.581.525-17.887.735a21.073,21.073,0,0,0,0-2.975C150.651,38.749,160.558,39.2,164.058,39.274Z"/><path class="cls-1" d="M27.548,92.272a7.7,7.7,0,0,0-4.885-2.464c-2.728.264-4,2.6-5.5,10.869h5.457l-.44,1.585H16.9l-2.464,15.8a18.07,18.07,0,0,1-1.76,5.632c-2.289,3.961-5.149,6.866-9.506,6.866-2.112,0-3.168-1.233-3.168-2.069A3.607,3.607,0,0,1,1.936,126.2c1.364,1.189,2.729,2.42,4.665,2.552,2.332-.132,3.7-4.136,4.8-10.781l2.6-15.754H10.341l.132-.7,3.653-.837a18.614,18.614,0,0,1,1.98-5.808c2.289-3.873,5.457-6.91,10.078-6.91,2.2,0,3.432,1.365,3.432,2.113C29.616,90.776,28.428,91.876,27.548,92.272Z"/><path class="cls-1" d="M33.707,114.671c-2.993,3.653-5.985,5.061-7.569,5.061-2.333,0-4.8-2.728-4.8-7.569a11.608,11.608,0,0,1,2.64-7.041c2.773-3.433,6.117-5.017,7.569-5.017,2.421,0,4.8,2.729,4.8,7.57A11.393,11.393,0,0,1,33.707,114.671ZM29.79,101.689c-1.98,0-5.281,4.049-5.281,10.078,0,4.224,1.5,6.425,3.433,6.425,2.112,0,5.237-4.136,5.237-10.3C33.179,103.978,31.683,101.689,29.79,101.689Z"/><path class="cls-1" d="M52.055,104.33h-.308a4.04,4.04,0,0,0-2.773-.969c-1.276,0-4.049,4.709-4.313,6.03l-1.892,9.857H39.777l2.772-14.126c.132-.792.308-2.465.308-2.641,0-.219-.22-.572-.308-.572-.66,0-1.892,1.32-3.609,3.7l-.616-.44c2.465-3.477,4.181-5.061,6.117-5.061.836,0,1.232,1.1,1.232,2.508a9.309,9.309,0,0,1-.175,1.5l-.4,2.861c2.684-4.709,5.06-6.294,6.556-6.866a6.27,6.27,0,0,1,2.817.924Z"/><path class="cls-1" d="M79.908,119.248v-.66c2.025-.088,3.7-.792,4.137-1.672v-11H68.026v11c.4.88,2.113,1.584,4.137,1.672v.66H60.237v-.66c2.025-.088,3.741-.792,4.137-1.672V93.636c-.4-.88-2.112-1.628-4.137-1.716V91.3H72.163v.616c-2.024.088-3.741.836-4.137,1.716v10.429H84.045V93.636c-.441-.88-2.112-1.628-4.137-1.716V91.3H91.834v.616c-2.024.088-3.7.836-4.137,1.716v23.28c.44.88,2.113,1.584,4.137,1.672v.66Z"/><path class="cls-1" d="M108.64,119.82h-.352l-.265-3.036c-1.936,1.408-5.324,2.948-6.865,2.948-3.828,0-4.884-2.508-4.884-6.117v-9.5c0-1.541-.749-1.76-2.905-2.333v-.571l5.809-1.1h.308l-.044,13.114a4.176,4.176,0,0,0,4.137,4.445,9.472,9.472,0,0,0,4.444-1.408V104.11c0-1.76-.616-1.98-3.652-2.333v-.571l6.513-1.1h.22v15.666a1.949,1.949,0,0,0,.88,1.761l2.993-.484v.616Z"/><path class="cls-1" d="M144.633,119.16c-1.672,0-3.212.088-4.313.132v-.66c2.069-.132,2.333-.748,2.729-1.5l-.132-10.43c0-2.244-1.364-4.356-3.961-4.356a10.026,10.026,0,0,0-4.576,1.584V117.18c.528.88.66,1.232,2.816,1.452v.616h-8.625v-.616c2.113-.132,2.332-.7,2.64-1.452V106.618c0-2.024-1.232-4.4-3.872-4.4a11,11,0,0,0-4.621,1.54V117.18c.484.88.616,1.232,2.816,1.452v.616h-8.669v-.616c2.156-.132,2.377-.7,2.773-1.452V104.726c0-.924-.617-1.5-2.6-2.069v-.527l5.369-2.113h.308v3.169c1.936-1.453,5.193-3.081,6.689-3.081,2.729,0,4.181,1.276,4.8,3.389,1.8-1.452,5.324-3.3,6.908-3.3,3.873,0,4.973,2.376,4.973,6.029l.133,11.265a6.918,6.918,0,0,0,3.608.969v.792C148.506,119.2,146.833,119.16,144.633,119.16Z"/><path class="cls-1" d="M164.827,119.645a2.99,2.99,0,0,1-3.081-3.038c-1.8,1.849-4.136,3.038-5.721,3.038a4,4,0,0,1-4.224-4,7.475,7.475,0,0,1,.792-3.345l9.153-3.3v-3.168c.044-2.112-1.672-4.4-3.784-4.4-1.276,0-2.42,1.5-2.553,3.741l-3.212.572v-.219c1.189-3.61,5.809-5.414,7.7-5.414,3.873,0,5.193,2.025,5.1,5.325l-.088,9.506c0,1.98.968,2.551,1.981,2.551a3.832,3.832,0,0,0,2.375-.967v.7C168.26,118.324,166.191,119.645,164.827,119.645Zm-9.109-7.306a11.173,11.173,0,0,0-.353,2.553c0,1.54.837,2.86,2.421,2.86a6.026,6.026,0,0,0,3.872-1.54l.088-6.558C160.294,110.314,156.994,111.635,155.718,112.339Z"/><path class="cls-1" d="M182.382,119.248v-.66c2.112-.176,2.376-.7,2.684-1.452V106.618a4.221,4.221,0,0,0-4.136-4.4,11.948,11.948,0,0,0-4.534,1.5V117.18c.485.88.705,1.232,2.905,1.452v.616h-8.845v-.616c2.156-.132,2.464-.7,2.86-1.452v-12.5c0-.88-.7-1.5-2.772-2.025v-.527l5.545-2.068h.307v3.167c1.937-1.452,5.238-3.124,6.778-3.124,3.916,0,5.1,2.42,5.1,5.985v11.353c.88.661,1.761.837,3.741,1.013v.792Z"/><path class="cls-1" d="M193.6,119.248v-.66c2.156-.176,2.507-.7,2.948-1.452l.044-12.586c0-1.012-.968-1.364-2.817-1.672v-.528l5.326-1.981h.527v16.767c.484.88.748,1.232,2.948,1.452v.66Zm4.092-26.316a2.148,2.148,0,0,1-2.2-2.024,2.18,2.18,0,0,1,4.358,0A2.137,2.137,0,0,1,197.692,92.932Z"/><path class="cls-1" d="M211.817,119.6c-3.565,0-4.84-2.158-4.84-5.678,0-4.18.263-7.305.351-11.485l-2.552.043v-.572l5.193-5.192h.4l-.044,4.093h6.558v1.715l-6.514-.044c-.088,4.446-.176,7.306-.176,11.222,0,2.465,1.541,3.961,4.137,3.961a9.47,9.47,0,0,0,2.9-.748v.527A11.257,11.257,0,0,1,211.817,119.6Z"/><path class="cls-1" d="M234.829,103.934l-5.5,13.509c-1.5,3.742-3.389,9.022-4.444,11.531a2.438,2.438,0,0,1-2.332,1.628,1.872,1.872,0,1,1,.088-3.741,3.594,3.594,0,0,1,1.584.484l3.168-7.525-6.248-16.37a3.146,3.146,0,0,0-3.125-2.113v-.616h9.153v.616a5.889,5.889,0,0,0-2.948.925l4.928,13.114,4.577-12.366a3.537,3.537,0,0,0-3.125-1.673v-.616h7.57v.616A3.7,3.7,0,0,0,234.829,103.934Z"/><path class="cls-1" d="M39.007,139.76v7.488H37.044V139.76h-3.5v-1.749H42.5v1.749Zm13.529,3.678H47.852v3.81H45.889v-9.237h1.963v3.662h4.684v-3.662h1.98v9.237h-1.98Zm6.074-5.427h6.136l.4,1.683h-4.6v2.111h3.877v1.534H60.54v2.243h4.652l-.413,1.666H58.61Zm19.766,5.328v3.909H76.413v-3.909l-3.794-5.328h2.309l2.524,3.744,2.507-3.744H82.17Zm8.8-5.361h2.045l4.041,9.27H91.13l-.825-2H85.917l-.841,2H83.014Zm2.523,5.691-1.55-3.777-1.584,3.777Zm6.8-5.658h1.963V145.5h4.157v1.748h-6.12Zm9.587,0h6.136l.4,1.683h-4.6v2.111h3.876v1.534h-3.876v2.243h4.651l-.412,1.666h-6.169Zm15.2,4.619a4.926,4.926,0,0,1,7.951-3.761v2.161H129.2a4.463,4.463,0,0,0-2.953-1.435,2.957,2.957,0,0,0-2.936,3,2.923,2.923,0,0,0,2.936,3.068,4.649,4.649,0,0,0,3.118-1.353l.033.017-.248,2.111a5.244,5.244,0,0,1-3.167,1.006A4.6,4.6,0,0,1,121.277,142.63Zm15.064-4.652h2.045l4.041,9.27H140.3l-.825-2h-4.388l-.841,2h-2.062Zm2.524,5.691-1.551-3.777-1.584,3.777Zm12.655.33,2.936-5.988h2.887v9.237H155.38l.016-7.191-3.761,7.356h-.28l-3.761-7.356.017,7.191h-1.93v-9.237h2.9Zm11.9.28v2.969h-1.963v-9.237h3.5c2.111,0,3.645,1.006,3.645,3.052,0,2.078-1.567,3.216-3.728,3.216Zm-.017-4.6v3h1.4c1.073,0,1.848-.561,1.848-1.55,0-.875-.676-1.452-1.782-1.452Zm10.956-1.7H176.4l4.041,9.27h-2.127l-.825-2H173.1l-.841,2H170.2Zm2.524,5.691-1.551-3.777-1.583,3.777Zm6.882-5.658h1.963v9.237h-1.963Zm10.476,9.369c-2.854,0-4.882-1.748-4.882-4.717,0-2.87,2.21-4.833,5.228-4.833a7.245,7.245,0,0,1,3.3.725v1.93h-.033a6.265,6.265,0,0,0-3.183-.907,3.078,3.078,0,0,0-3.3,3.1,2.833,2.833,0,0,0,3.1,3,4.451,4.451,0,0,0,1.814-.346v-1.617h-2.21V142.25h4.058v4.042A7.215,7.215,0,0,1,194.239,147.38Zm7.905-9.369h1.979l4.817,5.559-.017-5.559h1.947V147.3h-1.106l-5.69-6.5.016,6.449h-1.946Z"/></g></g></svg>